<svg xmlns="http://www.w3.org/2000/svg" xmlns:xlink="http://www.w3.org/1999/xlink" version="1.1" width="91" height="45" viewBox="0 0 1000 1000" xml:space="preserve">
<desc>Created with Fabric.js 3.5.0</desc>
<defs>
</defs>
<rect x="0" y="0" width="100%" height="100%" fill="#ffffff"/>
<g transform="matrix(0.138 0 0 0.069 500.016 738.624)" id="992331">
<g style="" vector-effect="non-scaling-stroke">
		<g transform="matrix(0.1333 0 0 -0.1333 -51.9347 -2.0946)">
<path style="stroke: none; stroke-width: 1; stroke-dasharray: none; stroke-linecap: butt; stroke-dashoffset: 0; stroke-linejoin: miter; stroke-miterlimit: 4; is-custom-font: none; font-file-url: none; fill: rgb(0,0,0); fill-rule: nonzero; opacity: 1;" transform=" translate(-2110.8125, -2515.6077)" d="M 825 2888 c -3 -18 -4 -199 -3 -403 l 3 -370 l 255 -3 c 140 -2 720 0 1288 4 l 1032 6 l 0 399 l 0 399 l -1285 0 l -1284 0 l -6 -32 z m 2545 -373 l 0 -375 l -505 0 l -505 0 l 0 375 l 0 375 l 505 0 l 505 0 l 0 -375 z m -1480 178 c 0 -3 -12 -27 -27 -52 c -15 -25 -53 -107 -84 -180 c -31 -74 -61 -137 -67 -139 c -9 -3 -12 20 -12 75 c 0 43 -7 105 -15 136 c -18 70 -19 80 -3 75 c 17 -6 36 -73 37 -130 c 1 -26 6 -50 11 -53 c 6 -3 10 -1 10 4 c 0 18 75 184 103 229 c 24 37 47 55 47 35 z m 140 -74 c 0 -6 -8 -13 -18 -16 c -14 -3 -22 -25 -36 -96 c -9 -51 -20 -102 -23 -115 c -4 -17 -2 -21 10 -16 c 8 3 18 1 22 -5 c 7 -13 -35 -31 -71 -31 c -13 0 -24 5 -24 10 c 0 6 7 10 15 10 c 8 0 15 1 15 3 c 0 1 11 53 23 115 c 19 91 20 112 9 112 c -22 0 -8 24 19 31 c 38 11 59 10 59 -2 z m 145 2 c 3 -6 17 -6 36 1 c 16 6 32 8 36 5 c 10 -11 -6 -24 -46 -37 c -32 -10 -43 -21 -55 -52 c -22 -54 -20 -59 19 -42 c 41 17 45 17 45 4 c 0 -5 -22 -21 -50 -35 c -46 -23 -50 -28 -50 -60 c 0 -43 18 -45 75 -10 c 59 36 77 30 31 -10 c -43 -39 -98 -54 -121 -35 c -20 17 -19 56 5 134 c 12 37 18 71 14 77 c -3 6 3 19 15 30 c 12 11 21 24 21 29 c 0 13 17 13 25 1 z m -580 -22 c 14 -15 19 -34 18 -75 c -2 -56 2 -58 39 -27 c 11 10 18 11 23 3 c 9 -15 -11 -37 -48 -51 c -18 -6 -42 -27 -56 -49 c -42 -67 -111 -90 -151 -50 c -28 28 -27 111 3 170 c 25 50 88 99 128 100 c 14 0 34 -9 44 -21 z m -365 -19 l 6 -25 l 13 23 c 8 15 20 22 34 20 c 29 -4 28 -44 -2 -153 c -25 -92 -22 -118 11 -89 c 11 11 31 36 45 57 c 30 48 50 39 24 -11 c -27 -52 -64 -84 -93 -80 c -19 2 -24 10 -26 43 c -2 22 6 72 18 112 c 12 40 20 78 18 85 c -5 13 -61 -101 -88 -177 c -19 -51 -40 -71 -40 -37 c 0 11 11 59 25 106 c 14 47 25 96 25 108 l 0 22 l -20 -20 c -11 -11 -42 -71 -68 -133 c -26 -62 -52 -112 -58 -111 c -13 2 -7 53 16 130 c 10 36 24 84 30 108 c 13 52 35 57 27 6 l -6 -36 l 30 42 c 35 48 69 52 79 10 z" stroke-linecap="round"/>
</g>
		<g transform="matrix(0.1333 0 0 -0.1333 71.2086 2.5446)">
<path style="stroke: none; stroke-width: 1; stroke-dasharray: none; stroke-linecap: butt; stroke-dashoffset: 0; stroke-linejoin: miter; stroke-miterlimit: 4; is-custom-font: none; font-file-url: none; fill: rgb(0,0,0); fill-rule: nonzero; opacity: 1;" transform=" translate(-3034.1345, -2480.8635)" d="M 2807 2683 c -24 -41 -61 -236 -52 -280 c 13 -72 86 -63 136 16 l 29 45 l 0 -31 c 0 -46 17 -83 37 -83 c 39 1 61 34 92 140 c 23 77 38 111 57 128 c 24 21 29 22 42 9 c 20 -21 10 -54 -33 -104 c -37 -44 -34 -61 10 -41 c 18 8 29 8 36 1 c 8 -8 0 -19 -27 -39 c -41 -31 -94 -108 -94 -135 c 0 -9 7 -22 15 -29 c 34 -28 132 67 142 138 c 5 38 8 42 66 67 c 42 18 57 29 50 36 c -8 8 -25 4 -59 -11 c -48 -21 -55 -20 -102 6 c -2 1 6 17 17 35 c 12 19 21 43 21 55 c 0 24 -29 54 -53 54 c -25 0 -84 -57 -92 -88 c -3 -15 -18 -64 -32 -109 c -21 -68 -29 -83 -46 -83 c -19 0 -20 4 -13 73 c 3 39 15 106 26 147 c 12 46 16 78 10 84 c -6 6 -14 -2 -20 -20 c -78 -205 -111 -267 -151 -279 c -46 -15 -50 43 -15 190 c 14 55 21 104 16 108 c -4 5 -10 5 -13 0 z m 343 -310 c -22 -38 -67 -79 -77 -70 c -11 12 11 51 50 90 c 46 46 59 36 27 -20 z" stroke-linecap="round"/>
</g>
		<g transform="matrix(0.1333 0 0 -0.1333 14.7659 3.2575)">
<path style="stroke: none; stroke-width: 1; stroke-dasharray: none; stroke-linecap: butt; stroke-dashoffset: 0; stroke-linejoin: miter; stroke-miterlimit: 4; is-custom-font: none; font-file-url: none; fill: rgb(0,0,0); fill-rule: nonzero; opacity: 1;" transform=" translate(-2610.7735, -2475.517)" d="M 2571 2658 c -4 -13 -14 -52 -21 -87 c -10 -47 -18 -65 -32 -69 c -21 -5 -24 -18 -6 -24 c 10 -4 10 -16 -1 -59 c -8 -30 -16 -60 -18 -66 c -3 -7 2 -13 10 -13 c 10 0 20 23 32 69 l 18 69 l 50 6 c 27 4 52 5 54 2 c 3 -3 -5 -50 -17 -106 c -13 -55 -20 -103 -16 -107 c 12 -12 23 15 46 123 c 18 80 27 105 41 109 c 23 8 25 25 3 25 c -12 0 -15 6 -10 25 c 14 56 18 115 8 115 c -13 0 -20 -19 -28 -79 c -3 -26 -9 -54 -13 -60 c -4 -6 -30 -14 -58 -18 l -51 -6 l 19 79 c 10 44 19 82 19 87 c 0 16 -21 5 -29 -15 z" stroke-linecap="round"/>
</g>
		<g transform="matrix(0.1333 0 0 -0.1333 -127.899 -4.5911)">
<path style="stroke: none; stroke-width: 1; stroke-dasharray: none; stroke-linecap: butt; stroke-dashoffset: 0; stroke-linejoin: miter; stroke-miterlimit: 4; is-custom-font: none; font-file-url: none; fill: rgb(0,0,0); fill-rule: nonzero; opacity: 1;" transform=" translate(-1540.7694, -2534.4163)" d="M 1522 2583 c -34 -30 -37 -59 -8 -88 c 39 -38 63 -33 71 15 c 5 30 2 47 -9 65 c -20 30 -27 31 -54 8 z" stroke-linecap="round"/>
</g>
		<g transform="matrix(0.1333 0 0 -0.1333 -134.4922 6.2219)">
<path style="stroke: none; stroke-width: 1; stroke-dasharray: none; stroke-linecap: butt; stroke-dashoffset: 0; stroke-linejoin: miter; stroke-miterlimit: 4; is-custom-font: none; font-file-url: none; fill: rgb(0,0,0); fill-rule: nonzero; opacity: 1;" transform=" translate(-1491.3264, -2453.3101)" d="M 1446 2517 c -28 -63 -31 -118 -8 -146 c 18 -23 21 -24 51 -11 c 26 11 71 56 71 73 c 0 2 -13 10 -30 17 c -37 15 -51 32 -60 73 l -7 32 l -17 -38 z" stroke-linecap="round"/>
</g>
</g>
</g>
</svg>